<svg id="Capa_1" enable-background="new 0 0 511.696 511.696" height="512" viewBox="0 0 511.696 511.696" width="512" xmlns="http://www.w3.org/2000/svg"><path d="m493.895 80.807h-20.725c-9.816 0-17.802 7.985-17.802 17.802v134.414c0 .46-.374.835-.834.835h-2.435c-4.142 0-7.5 3.357-7.5 7.5s3.358 7.5 7.5 7.5h2.435c8.731 0 15.834-7.104 15.834-15.835v-134.414c0-1.545 1.257-2.802 2.802-2.802h20.725c1.545 0 2.802 1.257 2.802 2.802v171.25c0 6.142-4.997 11.138-11.138 11.138h-75.102l.046-32.139h6.971c4.142 0 7.5-3.357 7.5-7.5s-3.358-7.5-7.5-7.5h-6.95l.082-57.618c5.242-2.486 8.884-7.814 8.884-13.991v-21.22c0-8.542-6.949-15.491-15.491-15.491h-51.053-194.036-51.053c-8.542 0-15.49 6.949-15.49 15.491v21.22c0 5.583 2.979 10.471 7.42 13.198v58.411h-42.624c-.46 0-.834-.375-.834-.835v-46.537c0-4.143-3.358-7.5-7.5-7.5s-7.5 3.357-7.5 7.5v46.537c0 8.731 7.103 15.835 15.834 15.835h42.624v32.139h-73.649c-6.141 0-11.138-4.997-11.138-11.138v-171.25c0-1.545 1.257-2.802 2.802-2.802h20.725c1.545 0 2.802 1.257 2.802 2.802v53.029c0 4.143 3.358 7.5 7.5 7.5s7.5-3.357 7.5-7.5v-53.029c0-9.816-7.986-17.802-17.802-17.802h-20.725c-9.816 0-17.802 7.985-17.802 17.802v319.531c0 6.341 5.159 11.5 11.5 11.5h19.08c6.341 0 11.5-5.159 11.5-11.5v-122.143h57.976v123.393c0 6.341 5.159 11.5 11.5 11.5h19.08c6.341 0 11.5-5.159 11.5-11.5v-125.345c.668-.063 1.374-.098 2.133-.098 6.526 0 9.374 2.378 13.684 5.977 5.049 4.216 11.333 9.463 23.298 9.463 11.964 0 18.247-5.247 23.295-9.463 4.309-3.599 7.156-5.977 13.68-5.977 3.887 0 6.467.849 8.83 2.292.167 15.207.069 50.313-3.723 75.465h-10.806c-18.563 0-35.109 12.461-40.236 30.303l-4.223 14.697c-.874 3.043-.259 6.369 1.646 8.897 1.904 2.529 4.932 4.039 8.098 4.039h156.235c3.166 0 6.194-1.51 8.098-4.039 1.905-2.529 2.52-5.855 1.646-8.897l-4.223-14.697c-5.127-17.842-21.673-30.303-40.236-30.303h-10.774c-1.005-6.658-1.83-14.42-2.442-23.176-.29-4.132-3.874-7.263-8.005-6.958-4.132.289-7.248 3.873-6.958 8.005.575 8.221 1.325 15.602 2.24 22.129h-34.942c2.994-21.35 3.63-47.62 3.668-64.932 3.486 1.55 7.709 2.614 13.087 2.614 6.15 0 10.792-1.391 14.544-3.311.004 2.628.021 5.473.059 8.501.051 4.111 3.398 7.408 7.498 7.408.031 0 .063 0 .094-.001 4.142-.051 7.458-3.449 7.407-7.591-.095-7.716-.057-14.35 0-18.947 1.995-.955 4.265-1.5 7.374-1.5 6.524 0 9.371 2.378 13.68 5.977 5.048 4.216 11.332 9.463 23.295 9.463 11.964 0 18.248-5.247 23.296-9.463 4.31-3.599 7.157-5.977 13.681-5.977.73 0 1.407.034 2.052.092v124.103c0 6.341 5.159 11.5 11.5 11.5h19.08c6.341 0 11.5-5.159 11.5-11.5l.174-122.144h59.182v122.144c0 6.341 5.159 11.5 11.5 11.5h19.08c6.341 0 11.5-5.159 11.5-11.5v-319.531c-.006-9.817-7.992-17.802-17.807-17.802zm-466.815 333.833h-12.08v-121.142c3.381 1.6 7.156 2.498 11.138 2.498h.941v118.644zm307.342-274.101-70.788 68.559c-4.32 4.185-11.091 4.187-15.413 0l-70.788-68.559zm-226.565 22.202c-.271 0-.49-.221-.49-.491v-21.22c0-.271.22-.491.49-.491h48.016l22.924 22.202zm19.278 253.148h-12.08v-108.286c2.522.019 5.051-.59 7.375-1.843 1.745-.94 3.291-1.993 4.704-3.06v113.189zm172.195-29.185c11.912 0 22.53 7.996 25.819 19.445l2.44 8.491h-143.321l2.44-8.491c3.29-11.449 13.907-19.445 25.819-19.445zm95.931 27.936h-12.08v-111.999c1.433 1.087 3.003 2.161 4.779 3.118 2.302 1.241 4.803 1.848 7.3 1.842v107.039zm.344-122.086c-1.941-1.046-4.189-2.481-6.18-4.145-5.048-4.216-11.332-9.463-23.295-9.463s-18.247 5.247-23.295 9.463c-4.31 3.599-7.157 5.977-13.682 5.977-6.524 0-9.371-2.378-13.68-5.977-5.048-4.216-11.332-9.463-23.295-9.463-11.964 0-18.247 5.247-23.295 9.463-4.309 3.599-7.156 5.977-13.68 5.977-6.525 0-9.372-2.378-13.682-5.977-5.048-4.216-11.332-9.463-23.296-9.463s-18.247 5.247-23.295 9.463c-4.309 3.599-7.156 5.977-13.68 5.977-6.526 0-9.374-2.378-13.684-5.977-5.049-4.216-11.333-9.463-23.298-9.463s-18.249 5.247-23.298 9.463c-1.991 1.663-3.711 3.099-5.654 4.146-.079.044-.154.085-.323-.018-.206-.123-.206-.261-.206-.352v-114.444h79.497l43.502 42.132c5.086 4.926 11.614 7.389 18.142 7.389s13.056-2.463 18.142-7.389l43.502-42.132h78.034v114.813zm8.885-130.304c0 .271-.22.491-.491.491h-70.94l22.924-22.202h48.016c.271 0 .491.221.491.491zm92.206 252.39h-12.08v-118.643h.941c3.982 0 7.757-.899 11.138-2.498v121.141z"/></svg>